# xmcd
#
# Track frame offsets:
# 150
# 15342
# 32657
# 49225
# 66205
# 77987
# 90487
# 104547
# 120427
# 135452
#
# Disc length: 1957 seconds
#
#
# Revision: 0
# Processed by: cddbd v1.5.2PL0 Copyright (c) Steve Scherf et al.
# Submitted via: Nero 7, 2, 3, 2 
#
DISCID=7807a30a
DTITLE=Country Dance Kings - Country Line Dancing 02
DYEAR=1999
DGENRE=Country
TTITLE0=Trashy Women
TTITLE1=Prop Me Up Beside The Jukebox (If I Die)
TTITLE2=Beer And Bones
TTITLE3=Ain't Coin' Down (Til The Sun Comes Up)
TTITLE4=I'll Take Texas
TTITLE5=Cowboy Boogie
TTITLE6=Words By Heart
TTITLE7=Piece Of My Heart
TTITLE8=(Who Says) You Can't Have It All
TTITLE9=I Want You Bad (And That Ain't Good)
EXTD=
EXTT0=
EXTT1=
EXTT2=
EXTT3=
EXTT4=
EXTT5=
EXTT6=
EXTT7=
EXTT8=
EXTT9=
PLAYORDER=
